{
    "asset" : {
        "generator" : "Khronos glTF Blender I/O v1.7.33",
        "version" : "2.0"
    },
    "scene" : 0,
    "scenes" : [
        {
            "name" : "Scene",
            "nodes" : [
                0
            ]
        }
    ],
    "nodes" : [
        {
            "mesh" : 0,
            "name" : "Object_2",
            "rotation" : [
                -0.35008931159973145,
                0.6238418817520142,
                0.6093606948852539,
                0.34196263551712036
            ],
            "translation" : [
                -0.04256254434585571,
                0.23202833533287048,
                0.5742020010948181
            ]
        }
    ],
    "materials" : [
        {
            "doubleSided" : true,
            "name" : "Material.001",
            "pbrMetallicRoughness" : {
                "baseColorTexture" : {
                    "index" : 0
                },
                "metallicFactor" : 0,
                "roughnessFactor" : 0.806350827217102
            }
        }
    ],
    "meshes" : [
        {
            "name" : "Object_0",
            "primitives" : [
                {
                    "attributes" : {
                        "POSITION" : 0,
                        "NORMAL" : 1,
                        "TEXCOORD_0" : 2
                    },
                    "indices" : 3,
                    "material" : 0
                }
            ]
        }
    ],
    "textures" : [
        {
            "sampler" : 0,
            "source" : 0
        }
    ],
    "images" : [
        {
            "bufferView" : 4,
            "mimeType" : "image/png",
            "name" : "Material.001_baseColor"
        }
    ],
    "accessors" : [
        {
            "bufferView" : 0,
            "componentType" : 5126,
            "count" : 5866,
            "max" : [
                1.6235181093215942,
                0.9796033501625061,
                1.0358729362487793
            ],
            "min" : [
                -1.604435920715332,
                -0.7146425247192383,
                -1.2949979305267334
            ],
            "type" : "VEC3"
        },
        {
            "bufferView" : 1,
            "componentType" : 5126,
            "count" : 5866,
            "type" : "VEC3"
        },
        {
            "bufferView" : 2,
            "componentType" : 5126,
            "count" : 5866,
            "type" : "VEC2"
        },
        {
            "bufferView" : 3,
            "componentType" : 5123,
            "count" : 22968,
            "type" : "SCALAR"
        }
    ],
    "bufferViews" : [
        {
            "buffer" : 0,
            "byteLength" : 70392,
            "byteOffset" : 0
        },
        {
            "buffer" : 0,
            "byteLength" : 70392,
            "byteOffset" : 70392
        },
        {
            "buffer" : 0,
            "byteLength" : 46928,
            "byteOffset" : 140784
        },
        {
            "buffer" : 0,
            "byteLength" : 45936,
            "byteOffset" : 187712
        },
        {
            "buffer" : 0,
            "byteLength" : 5958,
            "byteOffset" : 233648
        }
    ],
    "samplers" : [
        {
            "magFilter" : 9729,
            "minFilter" : 9987
        }
    ],
    "buffers" : [
        {
            "byteLength" : 239608,
            "uri" : "data:application/octet-stream;base64,"
        }
    ]
}
