<?xml version="1.0" standalone="no"?>
<!DOCTYPE svg PUBLIC "-//W3C//DTD SVG 20010904//EN"
 "http://www.w3.org/TR/2001/REC-SVG-20010904/DTD/svg10.dtd">
<svg version="1.0" xmlns="http://www.w3.org/2000/svg"
 width="449.000000pt" height="449.000000pt" viewBox="0 0 449.000000 449.000000"
 preserveAspectRatio="xMidYMid meet">
<metadata>
Created by potrace 1.14, written by Peter Selinger 2001-2017
</metadata>
<g transform="translate(0.000000,449.000000) scale(0.100000,-0.100000)"
fill="#000000" stroke="none">
<path d="M3387 4438 c-2 -29 -3 -56 -1 -60 7 -12 34 3 34 18 0 20 3 18 44 -18
40 -35 44 -45 19 -50 -16 -3 -16 -4 0 -18 47 -39 77 -70 77 -79 0 -5 9 -13 20
-16 25 -8 120 -98 120 -114 0 -21 38 -12 44 12 l6 22 15 -22 c9 -13 23 -23 31
-23 8 0 14 -4 14 -10 0 -5 14 -16 30 -25 17 -9 30 -22 30 -30 0 -8 3 -14 8
-14 39 6 70 -3 75 -23 4 -12 9 -19 12 -16 4 3 18 -5 32 -18 14 -13 33 -24 42
-24 10 0 22 -5 29 -12 9 -9 12 -9 12 2 0 8 12 3 30 -15 17 -16 30 -26 30 -22
0 4 9 -1 20 -11 11 -9 30 -19 43 -22 12 -3 26 -16 32 -28 10 -22 35 -31 35
-12 0 19 43 10 66 -15 13 -14 32 -25 44 -25 11 0 20 -7 20 -15 0 -12 7 -14 28
-9 15 4 29 11 30 16 2 4 10 8 18 8 12 0 14 56 14 360 l0 360 -549 0 -548 0 -6
-52z"/>
</g>
</svg>
